Coordinates
version=1
nRows=19
nColumns=24
inDegrees=yes

Units are S.I. units (second, meters, Newtons, ...)
Angles are in degrees.

endheader
time	pelvis_tilt	pelvis_list	pelvis_rotation	pelvis_tx	pelvis_ty	pelvis_tz	hip_flexion_r	hip_adduction_r	hip_rotation_r	knee_angle_r	ankle_angle_r	subtalar_angle_r	mtp_angle_r	hip_flexion_l	hip_adduction_l	hip_rotation_l	knee_angle_l	ankle_angle_l	subtalar_angle_l	mtp_angle_l	lumbar_extension	lumbar_bending	lumbar_rotation
      3.45000000	    -10.99311675	     -2.12494503	      7.48518054	     -1.87315880	     -0.04291634	      0.42602843	     36.30613162	     -2.39692530	     -7.53674463	     -6.05724545	     -3.72697398	     10.80873259	     19.11439478	     -2.85612473	      3.30060361	     18.27549296	    -16.34461964	     11.37509820	     -5.33264365	     -0.82736200	      6.07276024	      0.96112405	     -4.99015033
      3.45500000	    -11.20317253	     -2.35837501	      7.51783347	     -1.86597239	     -0.04398461	      0.42610551	     36.58653920	     -2.18237323	     -7.42879586	     -6.43883973	     -3.74214609	     10.36845697	     18.82757922	     -2.70951297	      3.05589964	     18.03541685	    -17.00208445	     11.34697373	     -4.85336714	     -0.48722475	      6.19365551	      1.26959249	     -5.02318961
      3.46000000	    -11.40232688	     -2.61340272	      7.55400804	     -1.85867186	     -0.04500394	      0.42621695	     36.84517528	     -1.93979400	     -7.32621078	     -6.88755838	     -3.76026298	      9.88218873	     18.57376515	     -2.57078429	      2.77459997	     17.84620023	    -17.67019974	     11.28912295	     -4.33325948	     -0.12206627	      6.31315533	      1.59857218	     -5.07462163
      3.46500000	    -11.59858165	     -2.87094418	      7.54710775	     -1.85131777	     -0.04597523	      0.42641274	     37.09673799	     -1.65831715	     -7.16373398	     -7.39283902	     -3.85960847	      9.35511041	     18.29345718	     -2.41437916	      2.48048016	     17.57939665	    -18.37276691	     11.18906593	     -3.73610616	      0.30547625	      6.42726138	      1.94162337	     -5.08320420
      3.47000000	    -11.78055936	     -3.11205264	      7.51859011	     -1.84391799	     -0.04687534	      0.42672204	     37.31546598	     -1.36008417	     -6.93385228	     -7.93066439	     -4.03472512	      8.78249332	     17.97045046	     -2.24602681	      2.18792224	     17.23735730	    -19.11899303	     11.01832245	     -3.05338380	      0.82437339	      6.51953525	      2.26255297	     -5.05414623
      3.47500000	    -11.97172810	     -3.41673658	      7.47416787	     -1.83632646	     -0.04773173	      0.42703500	     37.52216165	     -0.99121641	     -6.76024377	     -8.48428830	     -4.29692475	      8.27593521	     17.75266985	     -2.06075344	      1.81995045	     16.90736852	    -19.88184361	     10.81416741	     -2.34901675	      1.33588158	      6.65411939	      2.65495503	     -5.01823612
      3.48000000	    -12.14563574	     -3.67519653	      7.40189309	     -1.82877122	     -0.04851512	      0.42749640	     37.71114551	     -0.62657824	     -6.50951852	     -9.07486418	     -4.70773650	      7.69233875	     17.53643102	     -1.85761366	      1.47720568	     16.44503356	    -20.69423573	     10.55701062	     -1.47103274	      1.98064249	      6.74891266	      3.00044983	     -4.96219386
      3.48500000	    -12.29747258	     -3.90668017	      7.30756749	     -1.82121840	     -0.04917413	      0.42808550	     37.84664632	     -0.25172794	     -6.11770118	     -9.63602066	     -5.33000242	      7.04370672	     17.31927782	     -1.65775083	      1.14173933	     15.96044224	    -21.52469413	     10.15220267	     -0.54675065	      2.83185338	      6.80864550	      3.30972111	     -4.88092498
      3.49000000	    -12.45387547	     -4.19156333	      7.16158508	     -1.81351832	     -0.04976933	      0.42873393	     37.98411755	      0.20885478	     -5.78054333	    -10.19599175	     -6.14071031	      6.40956742	     17.23808241	     -1.44601319	      0.73647038	     15.42895633	    -22.35184391	      9.63241254	      0.34291625	      3.86924001	      6.89584153	      3.68690021	     -4.76731223
      3.49500000	    -12.61678129	     -4.47834167	      7.05745096	     -1.80578126	     -0.05025669	      0.42938064	     38.09680764	      0.64595564	     -5.47742116	    -10.70939002	     -7.04627883	      5.87004613	     17.23668409	     -1.16087545	      0.31078323	     14.83497453	    -23.28304089	      9.09991739	      1.48453149	      4.84411252	      7.00277331	      4.05077751	     -4.67362300
      3.50000000	    -12.78246574	     -4.78449655	      6.89607403	     -1.79799720	     -0.05064299	      0.43017848	     38.20978592	      1.14979434	     -5.10025323	    -11.19786364	     -8.14227035	      5.24840249	     17.27971349	     -0.84974744	     -0.15811579	     14.17540812	    -24.23381560	      8.45144855	      2.67077101	      5.96783368	      7.11427567	      4.43486613	     -4.53672554
      3.50500000	    -12.92495838	     -5.11773741	      6.68541628	     -1.79009758	     -0.05085296	      0.43099686	     38.26451638	      1.71968708	     -4.64306178	    -11.60011832	     -9.42627497	      4.49063305	     17.51615064	     -0.56234003	     -0.66737489	     13.50632531	    -25.13833297	      7.46360301	      3.63149878	      7.57621651	      7.22137986	      4.86298729	     -4.31713957
      3.51000000	    -13.09031386	     -5.44708830	      6.48761374	     -1.78225072	     -0.05099012	      0.43187807	     38.35824241	      2.27642425	     -4.20674556	    -12.03441904	    -10.60327895	      3.84305934	     17.55418645	     -0.16764707	     -1.19455477	     12.77272192	    -26.17929866	      6.54345344	      4.92764706	      8.98465332	      7.34771390	      5.27227267	     -4.13045268
      3.51500000	    -13.24783326	     -5.77783938	      6.26978136	     -1.77437414	     -0.05098662	      0.43282190	     38.43218619	      2.85797864	     -3.69840653	    -12.45236260	    -11.72990676	      3.14376378	     17.47111845	      0.25752861	     -1.74432691	     12.01096130	    -27.25236664	      5.46605634	      6.26923035	     10.52584844	      7.47304883	      5.67754050	     -3.93651741
      3.52000000	    -13.39821023	     -6.11316236	      6.03307299	     -1.76646678	     -0.05086703	      0.43380579	     38.49064562	      3.46336270	     -3.13320164	    -12.87163945	    -12.73305462	      2.41172088	     17.26687744	      0.72017517	     -2.31701638	     11.23309636	    -28.36352585	      4.21502056	      7.62413947	     12.24296572	      7.59912392	      6.08802820	     -3.73159878
      3.52500000	    -13.48642833	     -6.43329029	      5.77917964	     -1.75859001	     -0.05060746	      0.43478119	     38.48105419	      4.07200983	     -2.52011264	    -13.31882472	    -13.48141538	      1.77950510	     16.96743264	      1.15239188	     -2.89080264	     10.46161376	    -29.46082831	      2.66231428	      8.83450475	     14.54601861	      7.65022167	      6.49719671	     -3.49965898
      3.53000000	    -13.63094002	     -6.77485931	      5.51713119	     -1.75067412	     -0.05033016	      0.43579395	     38.52611313	      4.71102355	     -1.94227578	    -13.77696896	    -14.14252722	      0.95316104	     16.44598752	      1.71368919	     -3.48994624	      9.69678328	    -30.66893763	      1.09868905	     10.11852120	     16.43217953	      7.77807241	      6.91549065	     -3.25192479
      3.53500000	    -13.73126585	     -7.08565462	      5.25482499	     -1.74273936	     -0.04994894	      0.43681514	     38.50898561	      5.32960579	     -1.34270931	    -14.26334642	    -14.49708215	      0.23443788	     15.82517844	      2.26517237	     -4.07262416	      8.96985791	    -31.87338476	     -0.70072217	     11.34115183	     18.63565251	      7.86846844	      7.30247764	     -3.03799743
      3.54000000	    -13.87252364	     -7.37121181	      5.03224390	     -1.73496271	     -0.04960922	      0.43785109	     38.54248407	      5.90551999	     -0.78898937	    -14.77070964	    -14.76406158	     -0.66649047	     15.22410243	      2.96067767	     -4.62215260	      8.33847961	    -33.22563914	     -2.42322246	     12.67906048	     20.31568194	      7.98552618	      7.63686652	     -2.86606062
